<svg xmlns="http://www.w3.org/2000/svg" width="24" height="24" viewBox="0 0 24 24" fill="#03e8f4c4">
  <path d="M12 2.163c3.204 0 3.584.012 4.849.07 1.366.062 2.633.32 3.608 1.296.975.975 1.233 2.243 1.296 3.608.058 1.265.069 1.645.069 4.849s-.012 3.584-.07 4.849c-.062 1.366-.32 2.633-1.296 3.608-.975.975-2.243 1.233-3.608 1.296-1.265.058-1.645.069-4.849.069s-3.584-.012-4.849-.07c-1.366-.062-2.633-.32-3.608-1.296-.975-.975-1.233-2.243-1.296-3.608-.058-1.265-.069-1.645-.069-4.849s.012-3.584.07-4.849c.062-1.366.32-2.633 1.296-3.608.975-.975 2.243-1.233 3.608-1.296 1.265-.058 1.645-.069 4.849-.069m0-2.163c-3.259 0-3.667.012-4.947.072-1.5.068-2.979.35-4.104 1.476-1.125 1.126-1.408 2.604-1.476 4.104-.059 1.281-.072 1.689-.072 4.947s.012 3.667.072 4.947c.068 1.5.35 2.979 1.476 4.104 1.125 1.126 2.604 1.408 4.104 1.476 1.281.059 1.689.072 4.947.072s3.667-.012 4.947-.072c1.5-.068 2.979-.35 4.104-1.476 1.126-1.125 1.408-2.604 1.476-4.104.059-1.281.072-1.689.072-4.947s-.012-3.667-.072-4.947c-.068-1.5-.35-2.979-1.476-4.104-1.125-1.126-2.604-1.408-4.104-1.476-1.281-.059-1.689-.072-4.947-.072z"/>
  <path d="M12 5.838c-3.403 0-6.162 2.759-6.162 6.162s2.759 6.162 6.162 6.162 6.162-2.759 6.162-6.162-2.759-6.162-6.162-6.162zm0 10.324c-2.298 0-4.162-1.864-4.162-4.162s1.864-4.162 4.162-4.162 4.162 1.864 4.162 4.162-1.864 4.162-4.162 4.162z"/>
  <circle cx="18.406" cy="5.594" r="1.44"/>
</svg>
