<svg version="1.1" id="Layer_1" xmlns="http://www.w3.org/2000/svg" xmlns:xlink="http://www.w3.org/1999/xlink" x="0px" y="0px"
	 width="40px" viewBox="0 0 368 368" enable-background="new 0 0 368 368" xml:space="preserve">
<path fill="#03e9f4" opacity="1.000000" stroke="none" 
	d="
M246.072693,308.967926 
	C249.029099,313.957275 251.807190,318.624084 254.502197,323.151306 
	C253.317581,324.975952 251.870148,324.281128 250.631256,324.291992 
	C232.475906,324.450806 214.318954,324.497803 196.165894,324.789215 
	C192.699188,324.844849 191.637802,322.766602 190.361877,320.344635 
	C178.879883,298.549561 167.595184,276.645935 155.789459,255.027084 
	C138.478821,223.327499 121.921043,191.225098 104.032120,159.830505 
	C89.939621,135.098541 76.674797,109.891708 63.988064,84.390442 
	C57.033497,70.411247 53.175766,55.435558 49.095173,40.511543 
	C48.938770,39.939537 49.191280,39.255718 49.243408,38.724331 
	C51.103535,37.932865 51.928127,39.317402 52.857353,40.097130 
	C67.279800,52.199104 82.786720,62.862293 97.861694,74.097725 
	C108.135658,81.754959 118.399094,89.426369 128.685928,97.066277 
	C133.692627,100.784698 136.313324,106.224876 139.194626,111.474892 
	C153.690948,137.888657 168.243561,164.271957 182.632690,190.744064 
	C194.234985,212.089157 205.636948,233.543152 217.119919,254.953064 
	C226.717316,272.847321 236.303329,290.747711 246.072693,308.967926 
z"/>
<path fill="#F28C28" opacity="1.000000" stroke="none" 
	d="
M285.560608,87.562576 
	C271.162079,101.872543 256.967102,115.891747 242.828125,129.967194 
	C227.490417,145.235992 212.220795,160.573120 196.890854,175.849731 
	C187.038895,185.667450 186.611435,185.582840 180.166107,173.541504 
	C174.512222,162.978699 168.971527,152.351990 163.109482,141.905777 
	C161.104614,138.333084 162.263336,136.053070 164.740112,133.586380 
	C181.016541,117.376289 197.208298,101.081024 213.513733,84.900238 
	C227.800903,70.722267 242.248444,56.705757 256.515686,42.507935 
	C259.914551,39.125599 263.568298,37.579376 268.480133,37.636189 
	C288.794800,37.871147 309.113647,37.741741 329.430908,37.767899 
	C330.698792,37.769527 332.122375,37.307533 333.824524,39.567326 
	C318.771606,56.260292 301.102417,70.633408 285.560608,87.562576 
z"/>
<path fill="#F28C28" opacity="1.000000" stroke="none" 
	d="
M225.659561,203.302429 
	C218.861084,203.256760 212.527893,203.175522 206.195953,203.232910 
	C202.622314,203.265289 199.989685,201.973969 198.878677,198.454880 
	C197.562485,194.285904 194.046127,191.348022 192.562149,187.397247 
	C193.970444,185.191223 195.987442,185.875916 197.702866,185.870819 
	C224.367584,185.791641 251.032471,185.735443 277.697296,185.746613 
	C287.229980,185.750595 294.857513,190.871765 302.270905,195.860977 
	C329.657043,214.291718 338.023895,243.298645 328.862244,273.528442 
	C323.215179,292.161499 309.565277,305.092926 292.511261,314.283478 
	C289.483521,315.915100 286.432190,317.502869 283.619812,318.990265 
	C282.369629,318.061676 282.291290,317.209808 282.738708,316.460693 
	C292.353180,300.362457 289.088074,284.025574 283.458923,267.761322 
	C279.049622,255.021805 274.212128,242.431046 269.635345,229.748764 
	C264.493134,215.499756 252.973801,209.147781 239.426300,205.495560 
	C235.111206,204.332275 230.565536,204.024261 225.659561,203.302429 
z"/>
<path fill="#03e9f4" opacity="1.000000" stroke="none" 
	d="
M71.362160,275.362427 
	C56.866199,289.470581 42.615105,303.323578 28.653976,316.894684 
	C26.590569,316.116394 26.569969,315.133423 26.671949,314.097107 
	C28.764265,292.834869 27.343779,271.517456 27.574865,250.227249 
	C27.624058,245.695129 29.025999,242.323227 32.218224,239.206512 
	C52.805271,219.106369 73.289742,198.901169 93.819038,178.741837 
	C95.123207,177.461166 96.505005,176.257599 97.878662,175.050003 
	C103.444519,170.156906 103.234436,170.273712 106.573486,176.645370 
	C113.365059,189.605209 120.297112,202.495560 127.446243,215.260559 
	C128.963242,217.969208 128.313705,219.548630 126.499893,221.336960 
	C115.959656,231.729202 105.438866,242.141312 94.869232,252.503601 
	C87.148865,260.072510 79.363441,267.575073 71.362160,275.362427 
z"/>
</svg>