<svg xmlns="http://www.w3.org/2000/svg" width="24" height="24" viewBox="0 0 24 24" fill="#03e9f4">
  <path d="M22.23 0h-20.46c-.975 0-1.77.795-1.77 1.77v20.46c0 .975.795 1.77 1.77 1.77h20.46c.975 0 1.77-.795 1.77-1.77v-20.46c0-.975-.795-1.77-1.77-1.77zm-14.923 20.452h-3.202v-10.667h3.202v10.667zm-1.601-12.173c-1.019 0-1.846-.826-1.846-1.846s.827-1.846 1.846-1.846 1.846.826 1.846 1.846-.827 1.846-1.846 1.846zm13.522 12.173h-3.203v-5.829c0-1.391-.026-3.181-1.941-3.181-1.944 0-2.24 1.516-2.24 3.082v5.928h-3.202v-10.667h3.073v1.459h.043c.428-.808 1.474-1.659 3.034-1.659 3.244 0 3.844 2.135 3.844 4.914v5.953z"/>
</svg>
