<svg xmlns="http://www.w3.org/2000/svg" width="24" height="24" viewBox="0 0 24 24" fill="#03e9f4">
  <path d="M12.032 1.001h4.968v3.442c1.004.515 2.088.87 3.244 1.033v4.55c-1.747.137-3.447-.324-4.968-1.168v7.942c-.07 5.54-6.034 8.434-10.664 5.515-1.971-1.248-3.158-3.412-3.276-5.725-.296-5.504 5.854-9.059 10.267-6.348v4.805c-.71-.333-1.523-.531-2.365-.431-1.715.242-3.044 1.812-2.682 3.535.229 1.171 1.342 2.05 2.55 1.987 1.214.039 2.36-.891 2.634-2.089.132-.548.076-1.12.083-1.681v-11.359z"/>
</svg>