<svg xmlns="http://www.w3.org/2000/svg" width="24" height="24" viewBox="0 0 24 24" fill="#03e8f4c4">
  <path d="M24 4.557c-.883.392-1.832.656-2.828.775 1.017-.609 1.798-1.574 2.165-2.724-.951.564-2.005.974-3.127 1.195-.897-.957-2.178-1.555-3.594-1.555-2.719 0-4.924 2.205-4.924 4.924 0 .386.044.762.128 1.124-4.09-.205-7.719-2.165-10.148-5.144-.424.728-.666 1.574-.666 2.476 0 1.708.87 3.213 2.188 4.096-.807-.026-1.566-.248-2.229-.616v.062c0 2.386 1.697 4.374 3.946 4.827-.413.112-.848.171-1.296.171-.317 0-.626-.03-.929-.086.627 1.956 2.445 3.379 4.6 3.419-1.685 1.32-3.809 2.106-6.114 2.106-.397 0-.788-.023-1.174-.068 2.179 1.396 4.768 2.211 7.548 2.211 9.056 0 14.01-7.504 14.01-14.01 0-.213-.005-.425-.014-.637.961-.694 1.796-1.562 2.457-2.549z"/>
</svg>
